# xmcd
#
# Track frame offsets:
#	150
#	8762
#	29767
#	55432
#	77265
#	99350
#	124872
#	146485
#	170337
#	197272
#
# Disc length: 3341 seconds
#
# Revision: 4
# Processed by: cddbd v1.5PL3 Copyright (c) Steve Scherf et al.
# Submitted via: CDex 1.50Beta5
#
DISCID=770d0b0a
DTITLE=SKOOP - Where do we go
DYEAR=1999
DGENRE=New Age
TTITLE0=宙の地図
TTITLE1=Luv Connection
TTITLE2=君なき日々
TTITLE3=Over and Over
TTITLE4=Actor
TTITLE5=アマノガワ
TTITLE6=Soul Shadow
TTITLE7=Where do we go
TTITLE8=Beautiful Day
TTITLE9=祈り
EXTD=
EXTT0=
EXTT1=
EXTT2=
EXTT3=
EXTT4=
EXTT5=
EXTT6=
EXTT7=
EXTT8=
EXTT9=
PLAYORDER=
